<svg width="76" height="79" viewBox="0 0 76 79" fill="none" xmlns="http://www.w3.org/2000/svg">
<path d="M39.3599 9.84106C42.066 9.84106 44.2801 12.0551 44.2801 14.7612C44.2801 15.663 45.0178 16.4015 45.9204 16.4015C46.8222 16.4015 47.5607 15.6637 47.5607 14.7612C47.5607 12.0551 49.7747 9.84106 52.4808 9.84106C53.3826 9.84106 54.1211 9.1033 54.1211 8.20074C54.1211 7.29894 53.3834 6.56043 52.4808 6.56043C49.7747 6.56043 47.5607 4.34637 47.5607 1.64031C47.5607 0.738514 46.8229 0 45.9204 0C45.0186 0 44.2801 0.737752 44.2801 1.64031C44.2801 4.34637 42.066 6.56043 39.3599 6.56043C38.4582 6.56043 37.7196 7.29818 37.7196 8.20074C37.7204 9.1033 38.4582 9.84106 39.3599 9.84106Z" fill="white"/>
<path d="M60.6803 24.6008C63.3863 24.6008 65.6004 26.8149 65.6004 29.5209C65.6004 30.4227 66.3381 31.1613 67.2407 31.1613C68.1425 31.1613 68.881 30.4235 68.881 29.5209C68.881 26.8149 71.0951 24.6008 73.8011 24.6008C74.7029 24.6008 75.4414 23.8631 75.4414 22.9605C75.4414 22.0587 74.7037 21.3202 73.8011 21.3202C71.0951 21.3202 68.881 19.1061 68.881 16.4001C68.881 15.4983 68.1432 14.7598 67.2407 14.7598C66.3389 14.7598 65.6004 15.4975 65.6004 16.4001C65.6004 19.1061 63.3863 21.3202 60.6803 21.3202C59.7785 21.3202 59.0399 22.0579 59.0399 22.9605C59.0399 23.8631 59.7785 24.6008 60.6803 24.6008Z" fill="white"/>
<path d="M39.3599 36.0793C42.066 36.0793 44.2801 38.2934 44.2801 40.9994C44.2801 41.9012 45.0178 42.6398 45.9204 42.6398C46.8222 42.6398 47.5607 41.902 47.5607 40.9994C47.5607 38.2934 49.7747 36.0793 52.4808 36.0793C53.3826 36.0793 54.1211 35.3416 54.1211 34.439C54.1211 33.5372 53.3834 32.7987 52.4808 32.7987C49.7747 32.7987 47.5607 30.5846 47.5607 27.8786C47.5607 26.9768 46.8229 26.2383 45.9204 26.2383C45.0186 26.2383 44.2801 26.976 44.2801 27.8786C44.2801 30.5846 42.066 32.7987 39.3599 32.7987C38.4582 32.7987 37.7196 33.5365 37.7196 34.439C37.7204 35.3416 38.4582 36.0793 39.3599 36.0793Z" fill="white"/>
<path d="M39.36 78.72C54.1854 78.72 67.5846 70.5368 74.3424 57.3665C74.3584 57.3337 74.3752 57.3177 74.3912 57.2848C74.424 57.2192 74.4568 57.1376 74.4728 57.072C74.6201 56.6623 74.6041 56.1862 74.3912 55.7765C74.3912 55.7605 74.3752 55.7605 74.3752 55.7437C74.3424 55.6781 74.2936 55.6125 74.244 55.5637C74.1951 55.482 74.1295 55.3996 74.0471 55.334C74.0311 55.318 74.0311 55.318 74.0143 55.318C73.9159 55.2196 73.8175 55.154 73.703 55.0883C73.2437 54.8427 72.67 54.8259 72.1779 55.0723C72.1451 55.0883 72.1123 55.1051 72.0795 55.1212C67.0113 57.7274 61.5174 59.0395 55.7609 59.0395C35.8684 59.0395 19.6809 42.853 19.6809 22.9594C19.6809 17.203 20.9931 11.709 23.6008 6.64166C23.6168 6.60885 23.6336 6.57605 23.6496 6.54324C23.8625 6.13353 23.8793 5.65746 23.7312 5.24777C23.7152 5.18216 23.6824 5.10052 23.6496 5.03492C23.6336 5.0189 23.6336 5.00211 23.6168 4.98609C23.584 4.93726 23.568 4.88767 23.5184 4.85487C23.4696 4.77323 23.42 4.69084 23.3544 4.62522C23.3055 4.57639 23.2559 4.54358 23.2071 4.51078C23.1415 4.44516 23.0599 4.39634 22.9775 4.34675C22.9607 4.34522 22.9607 4.32844 22.9446 4.32844C22.5838 4.14838 22.1901 4.09879 21.8132 4.19721C21.7316 4.21323 21.6492 4.24604 21.5675 4.27884C21.4859 4.31165 21.4035 4.34446 21.3379 4.39329C8.16797 11.1675 0 24.5495 0 39.3601C0 61.0573 17.6629 78.7195 39.3594 78.7195L39.36 78.72Z" fill="white"/>
</svg>
