<svg width="100" height="100" viewBox="0 0 100 100" fill="none" xmlns="http://www.w3.org/2000/svg">
<path fill-rule="evenodd" clip-rule="evenodd" d="M49.9978 78.9951C66.0102 78.9951 78.9924 66.0129 78.9924 50.0004C78.9924 33.9869 66.0102 21.0056 49.9978 21.0056C33.9844 21.0056 21.0032 33.9871 21.0032 50.0004C21.0032 66.0129 33.9846 78.9951 49.9978 78.9951ZM41.4958 46.8881C41.4958 43.8469 43.9615 41.3811 47.0027 41.3811C49.3048 41.3811 51.17 39.5159 51.17 37.2147C51.17 34.9136 49.3048 33.0474 47.0027 33.0474C39.3591 33.0474 33.1628 39.2447 33.1628 46.8883C33.1628 49.1895 35.028 51.0547 37.3292 51.0547C39.6303 51.0547 41.4955 49.1895 41.4955 46.8883L41.4958 46.8881Z" fill="white"/>
<path fill-rule="evenodd" clip-rule="evenodd" d="M49.9978 0C53.2189 0 55.8305 2.6114 55.8305 5.83276V8.33301C55.8305 11.5551 53.2191 14.1665 49.9978 14.1665C46.7758 14.1665 44.1644 11.5551 44.1644 8.33301V5.83276C44.1644 2.61163 46.7758 0 49.9978 0ZM14.642 14.644C16.9206 12.3663 20.6139 12.3663 22.8916 14.644L24.6591 16.4115C26.9377 18.6901 26.9377 22.3834 24.6591 24.6611C22.3815 26.9397 18.6882 26.9397 16.4095 24.6611L14.642 22.8936C12.3644 20.6159 12.3644 16.9226 14.642 14.644ZM85.3536 14.644C87.6312 16.9225 87.6312 20.6159 85.3536 22.8936L83.5861 24.6611C81.3075 26.9397 77.6142 26.9397 75.3365 24.6611C73.0579 22.3834 73.0579 18.6901 75.3365 16.4115L77.104 14.644C79.3825 12.3663 83.0759 12.3663 85.3536 14.644ZM0 49.9999C0 46.7778 2.61139 44.1664 5.83273 44.1664H8.33297C11.555 44.1664 14.1664 46.7778 14.1664 49.9999C14.1664 53.221 11.555 55.8326 8.33297 55.8326H5.83273C2.61162 55.8326 0 53.2212 0 49.9999ZM85.8329 49.9999C85.8329 46.7778 88.4452 44.1664 91.6663 44.1664H94.1666C97.3886 44.1664 100 46.7778 100 49.9999C100 53.221 97.3886 55.8326 94.1666 55.8326H91.6663C88.4452 55.8326 85.8329 53.2212 85.8329 49.9999ZM75.3383 75.3382C77.6159 73.0596 81.3092 73.0596 83.5879 75.3382L85.3554 77.1057C87.6331 79.3843 87.6331 83.0776 85.3554 85.3553C83.0777 87.633 79.3844 87.633 77.1058 85.3553L75.3383 83.5878C73.0597 81.3092 73.0597 77.6159 75.3383 75.3382ZM24.662 75.3382C26.9405 77.6158 26.9405 81.3092 24.662 83.5878L22.8945 85.3553C20.6168 87.633 16.9235 87.633 14.6449 85.3553C12.3672 83.0776 12.3672 79.3843 14.6449 77.1057L16.4124 75.3382C18.6909 73.0596 22.3843 73.0596 24.662 75.3382ZM50.0001 85.8328C53.2212 85.8328 55.8328 88.4452 55.8328 91.6663V94.1666C55.8328 97.3886 53.2215 100 50.0001 100C46.7781 100 44.1667 97.3886 44.1667 94.1666V91.6663C44.1667 88.4452 46.7781 85.8328 50.0001 85.8328Z" fill="white"/>
</svg>
