<svg width="94" height="119" viewBox="0 0 94 119" fill="none" xmlns="http://www.w3.org/2000/svg">
<path d="M93.9152 29.106L93.6918 13.7028V13.5634L93.6907 13.5622C93.669 12.321 93.0532 11.1856 92.0742 10.5825C91.0952 9.97931 89.8993 9.99853 88.9364 10.6341C85.7911 12.6574 82.2914 13.9093 78.6724 14.307C74.9265 14.7143 71.1448 14.4211 67.4855 13.4383C63.7557 12.4278 60.1824 10.8034 56.8861 8.61906C53.5241 6.41309 50.4829 3.65433 47.8667 0.436682C47.639 0.165143 47.3202 0.00895355 46.9863 0.00292488C46.6285 -0.0235081 46.2783 0.130285 46.0354 0.421058C43.4193 3.63871 40.378 6.39744 37.016 8.60344C33.72 10.7878 30.1464 12.4123 26.4158 13.4227C22.7576 14.4055 18.9759 14.6987 15.2289 14.2914C11.6359 13.8877 8.15983 12.6417 5.0351 10.6339C4.56564 10.3371 4.03762 10.1725 3.4966 10.1533C1.76512 10.1268 0.339399 11.6587 0.309145 13.5776V13.7014L0.0857988 29.1046L0.00231509 44.4922L0.00123089 44.4934C-0.0573168 55.3201 1.97341 66.0351 5.95787 75.9194C9.98687 85.6624 15.707 94.4298 22.7944 101.721C26.265 105.332 30.0076 108.609 33.9813 111.515C35.9394 112.971 37.9809 114.32 40.0507 115.575C41.085 116.211 42.1486 116.799 43.2112 117.373L44.8332 118.194L45.6442 118.581L46.0638 118.783L46.273 118.876H46.3847C46.6839 119.041 47.0363 119.041 47.3355 118.876H47.4472L47.6565 118.783L48.076 118.581L48.887 118.194L50.509 117.373C51.5715 116.799 52.634 116.211 53.6696 115.575C55.7393 114.32 57.7807 112.971 59.7389 111.515C63.7124 108.609 67.4552 105.332 70.9258 101.721C78.1139 94.4587 83.9307 85.6889 88.0421 75.9194C92.0264 66.0345 94.0573 55.3195 93.9988 44.4934L93.9152 29.106ZM87.049 44.4936C87.0121 49.3765 86.586 54.2449 85.7761 59.0451C84.9196 63.8198 83.6457 68.4901 81.9728 72.991C78.4675 82.0792 73.5562 90.4188 67.4585 97.6314C64.4076 101.296 61.1377 104.729 57.6691 107.905C55.8932 109.455 54.1031 111.005 52.2437 112.554C51.3211 113.298 50.3702 113.994 49.4465 114.708L48.0479 115.731L47.3345 116.211L47.1111 116.366L46.8878 116.211L46.1744 115.731L44.7757 114.708C43.839 113.996 42.8881 113.298 41.9785 112.554C40.1191 111.098 38.3292 109.548 36.5531 107.905H36.5542C33.0859 104.729 29.816 101.296 26.7659 97.6314C20.5903 90.4428 15.6006 82.1079 12.0271 73.0064C10.3542 68.5055 9.08029 63.8342 8.22375 59.0605C7.41384 54.2606 6.98777 49.3906 6.95091 44.5089L6.88152 29.1214L6.72756 19.0335V19.0323C9.35241 19.9527 12.0738 20.4945 14.8233 20.6447C19.2068 20.8742 23.5902 20.2134 27.7588 18.6923C31.8583 17.2216 35.7125 15.0182 39.1689 12.1681C42.1537 9.70861 44.7883 6.76843 46.986 3.44282C49.1783 6.76751 51.8085 9.70741 54.7878 12.1681C58.2453 15.0181 62.0998 17.2217 66.199 18.6923C70.371 20.2146 74.7599 20.8766 79.1475 20.6447C81.9123 20.4933 84.6476 19.9467 87.2855 19.0167L87.1315 29.1046L87.049 44.4936Z" fill="#86AAF9"/>
<path d="M74.9525 36.9153C71.7639 39.6427 68.7019 42.494 65.7096 45.4231C64.1993 46.8794 62.7172 48.368 61.2492 49.8554C59.7812 51.3429 58.2991 52.846 56.8583 54.3803C53.9353 57.3865 51.0968 60.5788 48.2585 63.6786C46.0489 66.1585 43.8392 68.6372 41.6721 71.1483C40.7906 70.2184 39.9102 69.304 39.0017 68.4053C37.435 66.8553 35.8975 65.3054 34.3026 63.7567C31.1421 60.6569 27.9125 57.6352 24.5143 54.7537L24.5133 54.7513C24.1349 54.4461 23.6123 54.4918 23.2816 54.8583C22.9498 55.2247 22.9097 55.8038 23.1851 56.2232C25.7861 59.9419 28.5128 63.5222 31.3092 67.0705C32.7078 68.8367 34.1064 70.5416 35.5039 72.2779C36.9025 74.0141 38.3705 75.7022 39.8105 77.4072H39.8115C40.7732 78.5366 42.3746 78.5979 43.4056 77.5465L43.5455 77.4072C46.4684 74.3854 49.2645 71.2087 52.1173 68.1089C54.9697 65.009 57.7106 61.8178 60.5078 58.5786C61.9064 57.0287 63.305 55.3705 64.5909 53.7127C65.8779 52.0546 67.2754 50.4433 68.5905 48.7698C71.2338 45.4537 73.8066 42.0595 76.2677 38.5269H76.2666C76.5398 38.152 76.5398 37.6161 76.2666 37.2413C76.1344 37.0009 75.9197 36.8304 75.6714 36.7691C75.4242 36.7078 75.164 36.7606 74.9526 36.9156L74.9525 36.9153Z" fill="#86AAF9"/>
</svg>
