<svg width="96" height="119" viewBox="0 0 96 119" fill="none" xmlns="http://www.w3.org/2000/svg">
<path d="M91.3981 16.2848C73.1007 26.1553 59.5171 36.6964 49.5343 46.2701C44.1036 41.5848 39.4938 39.5445 34.9214 36.6333C31.8783 34.6981 28.0345 36.1448 26.5286 39.5065L26.2425 40.1393C24.7255 43.5001 26.2993 47.1196 29.4651 48.8128C33.2723 50.8501 36.9942 53.1369 40.5935 55.5468C34.4342 62.5484 30.4138 68.5444 27.9767 72.6566C26.0995 75.8142 27.5018 79.7981 30.7458 81.3649L31.3556 81.6618C34.5985 83.2274 38.0791 81.6155 39.7149 78.3094C42.14 73.4589 45.7879 68.006 50.0336 62.4049C61.2928 71.1636 70.5683 80.4866 75.9096 86.5417C77.112 87.9125 77.4347 87.6872 76.6047 86.0447C68.7974 70.4286 62.3804 60.533 56.8677 53.8573C70.1066 38.0412 85.951 22.6456 91.8711 17.007C93.1953 15.7551 92.9781 15.433 91.3962 16.2858L91.3981 16.2848Z" fill="#86AAF9"/>
<path d="M86.2444 34.3166C85.7532 50.4841 83.602 64.5606 75.9665 78.11C75.5129 78.9165 75.4754 80.2357 75.9015 81.0589C76.6129 82.4213 77.3292 83.8173 78.0487 85.2641C78.5479 86.2528 78.9893 87.3056 78.4332 88.2605C78.4332 88.2605 78.3267 88.4427 78.1917 88.668C78.0649 88.8975 77.7341 89.0881 77.4561 89.1007L76.9609 89.126C76.139 89.1218 75.4886 88.5701 74.7032 87.6751C74.3064 87.2298 73.7423 86.5928 73.0309 85.8211C72.4049 85.142 71.4602 85.2104 70.9082 85.9527C65.6032 93.1152 58.5368 100.228 48.9793 107.51C48.2517 108.066 47.0574 108.066 46.3328 107.51C13.5322 82.5361 9.32916 59.6303 8.9603 29.1301C8.94812 28.1878 9.65943 27.2634 10.5351 27.0381C26.6448 22.8962 39.9328 15.2156 46.2763 11.1126C47.0454 10.6156 48.2682 10.6156 49.0415 11.1126C52.8741 13.5826 59.2575 17.3592 67.2453 20.8769C68.0754 21.2464 69.3681 21.119 70.1241 20.6094C72.3453 19.1197 74.6102 17.6605 76.9216 16.2349C77.6989 15.7559 77.641 15.1273 76.7948 14.8094C61.4089 9.03439 50.4 0.96759 50.2597 0.865438C48.7052 -0.288479 46.6118 -0.288479 45.0613 0.865438C44.8776 1.00126 26.3176 14.6274 3.62347 19.1335C1.51794 19.5399 0 21.4582 0 23.6775C0 58.7543 3.3211 87.9661 45.1187 117.989C45.8797 118.541 46.7717 118.812 47.6595 118.812C48.5474 118.812 49.4383 118.541 50.1993 117.989C91.302 88.4701 95.1933 59.73 95.3128 25.4348C95.3169 24.4967 94.777 24.2556 94.1185 24.8916C92.2737 26.6783 90.016 28.8849 87.4641 31.4393C86.8136 32.0889 86.2697 33.3797 86.2454 34.3168L86.2444 34.3166Z" fill="#86AAF9"/>
</svg>
