<svg width="122" height="121" viewBox="0 0 122 121" fill="none" xmlns="http://www.w3.org/2000/svg">
<path d="M116.791 92.1253L112.927 85.4646C105.949 73.3722 102.269 59.5678 102.269 45.615C102.269 34.3036 97.6553 24.1091 90.1857 16.6671C82.6862 9.26251 72.403 4.68555 60.9986 4.68555C38.2232 4.68555 19.7235 23.0664 19.7235 45.6152C19.7235 59.5678 16.0468 73.372 9.06519 85.4649L5.20146 92.1255C4.56387 93.2786 4.56387 94.6928 5.20146 95.8458C5.87627 96.9988 7.11515 97.706 8.46568 97.706H68.5006L39.4565 100.106C42.1615 109.423 50.7294 116.31 60.9976 116.31C72.1401 116.31 81.3726 108.236 83.1726 97.7067H113.527C114.878 97.7067 116.116 96.9995 116.791 95.8465C117.432 94.6926 117.432 93.2783 116.79 92.1253H116.791Z" fill="#86AAF9"/>
</svg>
