<svg width="93" height="93" viewBox="0 0 93 93" fill="none" xmlns="http://www.w3.org/2000/svg">
<path d="M89.923 77.3748L71.3907 58.8425C70.9562 58.4072 70.3657 58.1623 69.7501 58.1623C69.1354 58.1623 68.5449 58.4072 68.1104 58.8425L66.7577 60.2004L58.6314 52.0688C65.2697 43.1976 66.9422 31.5597 63.0686 21.1792C59.1951 10.7984 50.3085 3.09874 39.4821 0.744282C28.6546 -1.61018 17.3721 1.70209 9.53709 9.53709C1.70213 17.3721 -1.61018 28.6537 0.744277 39.4821C3.09874 50.3087 10.7984 59.1953 21.1792 63.0686C31.5608 66.9422 43.1987 65.2696 52.0688 58.6314L60.1995 66.7672L58.8417 68.1198H58.8425C58.4071 68.5544 58.1623 69.144 58.1623 69.7596C58.1623 70.3752 58.4072 70.9648 58.8425 71.4002L77.3747 89.9324V89.9316C79.6248 92.1257 82.8683 92.9654 85.9003 92.1395C88.9332 91.3127 91.3016 88.9444 92.1283 85.9115C92.9542 82.8795 92.1154 79.636 89.9213 77.3859L89.923 77.3748ZM9.5208 32.6846C9.5208 26.5402 11.9616 20.6485 16.3057 16.3042C20.65 11.9599 26.5416 9.51937 32.686 9.51937C38.8295 9.51937 44.7212 11.9601 49.0664 16.3042C53.4107 20.6485 55.8512 26.5402 55.8512 32.6846C55.8512 38.8281 53.4105 44.7198 49.0664 49.065C44.7212 53.4093 38.8295 55.8498 32.686 55.8498C26.5443 55.8421 20.6568 53.3989 16.3134 49.0564C11.9708 44.7138 9.52764 38.8257 9.5208 32.6846Z" fill="#86AAF9"/>
</svg>
