<svg width="122" height="119" viewBox="0 0 122 119" fill="none" xmlns="http://www.w3.org/2000/svg">
<path d="M112.615 45.7689H105.764C104.932 43.2161 103.88 40.7362 102.621 38.3547L107.312 33.7784V33.7773C109.061 32.0626 110.041 29.7426 110.041 27.3239C110.041 24.9063 109.061 22.5863 107.312 20.8706L100.79 14.189C99.0325 12.4845 96.654 11.5272 94.1743 11.5272C91.6946 11.5272 89.316 12.4845 87.5582 14.189L82.8666 18.7653C80.3601 17.574 77.7547 16.594 75.0768 15.8367V9.15395C75.0768 6.72609 74.0884 4.39829 72.3281 2.68109C70.5679 0.96526 68.1813 0 65.6921 0H56.3076C53.8185 0 51.432 0.965231 49.6715 2.68109C47.9113 4.39806 46.9228 6.72598 46.9228 9.15395V15.8367C44.3057 16.6486 41.7632 17.674 39.3217 18.9028L34.6301 14.3265H34.6289C32.871 12.6208 30.4925 11.6647 28.0128 11.6647C25.5342 11.6647 23.1558 12.6209 21.3967 14.3265L14.5467 20.688C12.7992 22.4038 11.8178 24.7239 11.8178 27.1414C11.8178 29.5601 12.7993 31.8802 14.5467 33.5947L19.2384 38.171V38.1722C18.0171 40.6159 17.0124 43.1584 16.236 45.7692H9.38474C6.89567 45.7692 4.50918 46.7333 2.74869 48.4503C0.989596 50.1673 0 52.4952 0 54.9231V64.0769C0 66.5047 0.989567 68.8325 2.74869 70.5497C4.50894 72.2667 6.89555 73.2308 9.38474 73.2308H16.236C17.0684 75.7836 18.1196 78.2647 19.3793 80.645L14.6877 85.2213V85.2224C12.939 86.9371 11.9588 89.2571 11.9588 91.6758C11.9588 94.0934 12.9391 96.4146 14.6877 98.1292L21.2096 104.811C22.9687 106.516 25.3472 107.473 27.8257 107.473C30.3054 107.473 32.6839 106.516 34.4417 104.811L39.1334 100.234H39.1346C41.5747 101.463 44.1186 102.489 46.7357 103.301V109.846C46.7357 112.274 47.7241 114.602 49.4843 116.319C51.2446 118.036 53.6312 119 56.1204 119H65.5049C67.994 119 70.3805 118.036 72.141 116.319C73.9015 114.602 74.8897 112.274 74.8897 109.846V103.163C77.5068 102.351 80.0492 101.326 82.4907 100.097L87.1824 104.674H87.1836C88.9415 106.379 91.32 107.335 93.7997 107.335C96.2783 107.335 98.6567 106.379 100.416 104.674L107.078 98.1748C108.826 96.4601 109.807 94.1401 109.807 91.7214C109.807 89.3038 108.826 86.9838 107.078 85.2681L102.387 80.6918H102.386C103.729 78.3037 104.858 75.8076 105.764 73.2311H112.615C115.104 73.2311 117.491 72.267 119.251 70.55C121.012 68.833 122 66.5051 122 64.0771V54.9234C122 52.4955 121.012 50.1677 119.251 48.4505C117.491 46.7333 115.104 45.7695 112.615 45.7695V45.7689ZM112.615 64.0767H101.775C101.496 64.0335 101.211 64.0335 100.931 64.0767C100.618 64.1357 100.317 64.2436 100.04 64.3969L99.3353 64.8091H99.3364C99.1059 65.0113 98.8859 65.2248 98.6787 65.4496C98.5064 65.6676 98.3492 65.897 98.2095 66.1366C98.022 66.4023 97.88 66.6965 97.788 67.0065V67.3721C96.8613 71.3772 95.2768 75.211 93.0952 78.7233C93.108 78.8448 93.108 78.9675 93.0952 79.089C92.9578 79.3683 92.8484 79.659 92.7669 79.9588C92.7226 80.2313 92.7226 80.5096 92.7669 80.7821C92.7203 81.0705 92.7203 81.3635 92.7669 81.6519C92.7494 81.9415 92.7494 82.2322 92.7669 82.5218C92.8565 82.7739 92.9659 83.0192 93.0952 83.2542C93.2279 83.5358 93.4025 83.7982 93.6109 84.0321C93.6785 84.1604 93.7576 84.2831 93.8461 84.3977L101.26 91.5837L94.5972 98.0824L86.8074 91.1258H86.4325C86.2067 90.8919 85.9354 90.7057 85.6351 90.5774L84.8841 90.2571H83.9924V90.256C83.6967 90.2106 83.3963 90.2106 83.1006 90.256C82.8212 90.2128 82.536 90.2128 82.2565 90.256L81.3648 90.5762H80.9899L80.9887 90.5774C77.3891 92.7043 73.4586 94.2498 69.3526 95.1536C69.2291 95.1275 69.1011 95.1275 68.9765 95.1536L68.0847 95.5193L67.3804 96.0224L67.3816 96.0235C67.1545 96.2143 66.9496 96.4289 66.7715 96.664L66.2558 97.351C66.1405 97.6178 66.0462 97.8938 65.974 98.1743C65.9298 98.4627 65.9298 98.7557 65.974 99.0441C65.9519 99.1804 65.9519 99.3189 65.974 99.4563V109.846H56.3075V99.6845C56.3297 99.5483 56.3297 99.4097 56.3075 99.2723C56.3518 98.985 56.3518 98.692 56.3075 98.4036C56.2354 98.122 56.1411 97.8472 56.0258 97.5792L55.5101 96.8922V96.8933C55.3319 96.6582 55.127 96.4425 54.9 96.2517L54.1957 95.7486L53.3039 95.383H53.3051C53.1805 95.3569 53.0524 95.3569 52.929 95.383C48.823 94.4791 44.8925 92.9336 41.2928 90.8055H40.918L40.0262 90.4853H40.025C39.7456 90.4422 39.4604 90.4422 39.181 90.4853C38.8853 90.4399 38.5849 90.4399 38.2892 90.4853H37.4452L36.6011 90.8055L35.8502 91.3086L35.4754 91.538L27.8254 98.3571L21.1628 91.8583L28.5765 84.6724C28.6649 84.5577 28.7441 84.4351 28.8116 84.3067C29.02 84.0728 29.1947 83.8105 29.3274 83.5289C29.4566 83.2927 29.566 83.0485 29.6557 82.7964C29.6732 82.5069 29.6732 82.2162 29.6557 81.9266C29.7023 81.6382 29.7023 81.3452 29.6557 81.0567C29.6999 80.7842 29.6999 80.506 29.6557 80.2335C29.5742 79.9337 29.4648 79.643 29.3274 79.3636C29.3146 79.2421 29.3146 79.1195 29.3274 78.9968C27.1457 75.4857 25.5611 71.6518 24.6345 67.6468V67.2812V67.28C24.5425 66.97 24.4005 66.677 24.2131 66.4113C24.0722 66.1717 23.9162 65.9423 23.7439 65.7243C23.5367 65.4994 23.3166 65.2859 23.0861 65.0838L22.3818 64.6716L21.49 64.3059H21.4912C21.2106 64.2832 20.9277 64.2832 20.6471 64.3059H9.38468V54.9228H19.8019C20.3805 54.9183 20.9533 54.8104 21.4912 54.6026L22.0069 54.3278L22.8987 53.7327L23.3679 53.2751L23.9313 52.4053L24.2131 51.8102V51.3526C25.1386 47.3475 26.7243 43.5149 28.9047 40.0026C28.8931 39.8811 28.8931 39.7584 28.9047 39.6358C29.0421 39.3576 29.1527 39.0657 29.233 38.7671C29.2785 38.4934 29.2785 38.2152 29.233 37.9426C29.2796 37.6542 29.2796 37.3612 29.233 37.0728C29.2505 36.7832 29.2505 36.4937 29.233 36.2029C29.1434 35.9508 29.034 35.7067 28.9047 35.4716C28.772 35.1889 28.5986 34.9266 28.389 34.6926C28.3215 34.5643 28.2423 34.4428 28.1538 34.327L21.1628 27.141L27.8254 20.6423L35.1925 27.8736C35.5918 28.2495 36.0517 28.5584 36.5535 28.7889H36.9283C37.4278 28.9547 37.9493 29.0466 38.4767 29.0637C39.0076 29.0432 39.5315 28.9354 40.0251 28.7434H40.9634C44.5643 26.6154 48.4948 25.0698 52.6008 24.166C52.7242 24.1921 52.8523 24.1921 52.9768 24.166L53.8686 23.8003L54.6184 22.8851C54.8454 22.6943 55.0503 22.4797 55.2284 22.2446L55.7441 21.5576C55.8594 21.2907 55.9537 21.0148 56.0259 20.7332C56.0701 20.4459 56.0701 20.1529 56.0259 19.8645C56.048 19.7282 56.048 19.5885 56.0259 19.4522V9.15371H65.4104V19.3147C65.3883 19.451 65.3883 19.5907 65.4104 19.727C65.3673 20.0154 65.3673 20.3084 65.4104 20.5968C65.4838 20.8773 65.5781 21.1533 65.6922 21.4201L66.2079 22.1071C66.3872 22.3422 66.5909 22.5568 66.8179 22.7476L67.5223 23.2506L68.4141 23.6163V23.6174C68.5375 23.6435 68.6655 23.6435 68.7889 23.6174C72.8962 24.5202 76.8255 26.0669 80.4263 28.1937H81.3647C81.8583 28.3856 82.3822 28.4935 82.913 28.514C83.4404 28.4981 83.962 28.4049 84.4614 28.2392H84.8363C85.3392 28.0098 85.7979 27.6997 86.1972 27.3239L93.5644 20.0926L100.227 26.5913L93.4234 34.3267C93.3349 34.4425 93.2569 34.564 93.1894 34.6924C92.9798 34.9263 92.8064 35.1886 92.6725 35.4714C92.5433 35.7064 92.4338 35.9506 92.3442 36.2027C92.3267 36.4934 92.3267 36.7829 92.3442 37.0725C92.2976 37.3609 92.2976 37.6539 92.3442 37.9424C92.2999 38.2149 92.2999 38.4931 92.3442 38.7668C92.4256 39.0654 92.5351 39.3573 92.6725 39.6355C92.6853 39.7581 92.6853 39.8808 92.6725 40.0023C94.8542 43.5146 96.4388 47.3472 97.3653 51.3523V51.8099L97.6471 52.405L98.2105 53.2748H98.2094C98.3537 53.4383 98.5109 53.5916 98.6785 53.7324L99.5703 54.3275L100.086 54.6023C100.625 54.8101 101.198 54.918 101.775 54.9225H112.615L112.615 64.0767Z" fill="#86AAF9"/>
<path d="M61.0015 36.6147C54.7788 36.6147 48.8113 39.0256 44.4117 43.3181C40.0109 47.6095 37.5393 53.4303 37.5393 59.5C37.5393 65.5685 40.0109 71.3893 44.4117 75.6818C48.8113 79.9732 54.7788 82.384 61.0015 82.384C67.223 82.384 73.1906 79.9732 77.5913 75.6818C81.9909 71.3893 84.4625 65.5685 84.4625 59.5C84.4625 53.4303 81.9909 47.6095 77.5913 43.3181C73.1906 39.0256 67.223 36.6147 61.0015 36.6147ZM61.0015 73.2291C57.268 73.2291 53.6868 71.7824 51.0477 69.2081C48.4073 66.6326 46.9241 63.1396 46.9241 59.4991C46.9241 55.8574 48.4073 52.3643 51.0477 49.7901C53.687 47.2146 57.268 45.7679 61.0015 45.7679C64.7338 45.7679 68.315 47.2146 70.9553 49.7901C73.5945 52.3645 75.0777 55.8574 75.0777 59.4991C75.0777 63.1396 73.5945 66.6327 70.9553 69.2081C68.3149 71.7824 64.7338 73.2291 61.0015 73.2291Z" fill="#86AAF9"/>
</svg>
