<svg width="95" height="99" viewBox="0 0 95 99" fill="none" xmlns="http://www.w3.org/2000/svg">
<path fill-rule="evenodd" clip-rule="evenodd" d="M47.5008 98.9996C50.343 98.9996 52.6467 97.1516 52.6467 94.8717V45.8933L78.322 64.6185C80.4247 66.1519 83.679 66.0283 85.5907 64.3407C87.5034 62.6541 87.3481 60.0435 85.2455 58.5091L52.2998 34.4811C49.4911 32.4323 45.1998 32.4395 42.4024 34.4972L9.73978 58.5207C7.64498 60.0621 7.5042 62.6738 9.42472 64.3541C11.3452 66.0344 14.601 66.1474 16.6957 64.6068L42.3541 45.7354V94.8721C42.3541 97.1521 44.6579 99 47.5001 99L47.5008 98.9996Z" fill="#86AAF9"/>
<path fill-rule="evenodd" clip-rule="evenodd" d="M84.7082 14.2326V10.5358C84.7082 9.93356 84.4121 9.35641 83.8825 8.92892C83.3496 8.49785 82.6234 8.25587 81.867 8.25587H13.1355C12.378 8.25587 11.6529 8.49785 11.1189 8.92892C10.5904 9.35641 10.2933 9.93356 10.2933 10.5358V14.2326C10.2933 14.8348 10.5904 15.412 11.1189 15.8395C11.6529 16.2697 12.378 16.5125 13.1355 16.5125H81.867C82.6234 16.5125 83.3496 16.2697 83.8825 15.8395C84.4121 15.412 84.7082 14.8348 84.7082 14.2326ZM95 10.5358V14.2326C95 17.0144 93.6292 19.6843 91.1846 21.6576C88.7189 23.649 85.366 24.7684 81.8669 24.7684H13.1354C9.63632 24.7684 6.28225 23.6491 3.81655 21.6576C1.37203 19.6841 0 17.0144 0 14.2326V10.5358C0 7.75308 1.37197 5.08413 3.81655 3.1099C6.28228 1.11943 9.63632 0 13.1354 0H81.8669C85.366 0 88.7189 1.11936 91.1846 3.1099C93.6291 5.08425 95 7.75308 95 10.5358Z" fill="#86AAF9"/>
</svg>
