<svg width="127" height="119" viewBox="0 0 127 119" fill="none" xmlns="http://www.w3.org/2000/svg">
<path d="M110.989 80.3252V81.9649V81.964C110.986 86.8702 108.905 91.5751 105.203 95.044C101.501 98.5131 96.4798 100.463 91.2438 100.465H35.7582C30.5259 100.463 25.5079 98.5157 21.8066 95.0503C18.1042 91.5849 16.0211 86.8855 16.0134 81.9828V80.3431C16.0134 79.0503 17.1325 78.0017 18.5132 78.0017C19.893 78.0017 21.0121 79.0503 21.0121 80.3431V81.9828C21.0189 85.6453 22.574 89.1561 25.3383 91.7464C28.1027 94.3358 31.8495 95.7938 35.7582 95.8001H91.2438C95.1525 95.7937 98.8993 94.3356 101.664 91.7464C104.428 89.1561 105.983 85.6453 105.99 81.9828V80.3431C105.99 79.0503 107.109 78.0017 108.49 78.0017C109.87 78.0017 110.989 79.0503 110.989 80.3431V80.3252ZM31.4102 53.9547H47.6059V82.6192C47.6272 83.9048 48.7338 84.9416 50.1047 84.9616H76.8988C78.2698 84.9416 79.3763 83.9048 79.3976 82.6192V53.9547H95.5933C96.6029 53.9601 97.5167 53.3972 97.91 52.5265C98.3034 51.6559 98.0999 50.649 97.3936 49.9736L65.3013 19.2195C64.2897 18.3298 62.7142 18.3298 61.7016 19.2195L29.6093 49.9922H29.6103C28.9039 50.6677 28.6995 51.6745 29.0929 52.5451C29.4872 53.4149 30.4 53.9787 31.4096 53.9732L31.4102 53.9547Z" fill="#86AAF9"/>
</svg>
